# xmcd
#
# Track frame offsets: 
#        150
#        12301
#        27476
#        42818
#        58369
#        76581
#        92416
#        107264
#        121253
#        139330
#        154283
#        171366
#        186270
#
# Disc length: 2676 seconds
#
# Revision: 0
# Processed by: cddbd v1.5.2PL0 Copyright (c) Steve Scherf et al.
# Submitted via: ExactAudioCopyFreeDBPlugin 1.0
#
DISCID=a40a720d
DTITLE=Kelly Hogan - I like to keep myself in pain
DYEAR=2012
DGENRE=Blues
TTITLE0=Dusty Groove
TTITLE1=We Can't Have Nice Things
TTITLE2=I Like To Keep Myself In Pain
TTITLE3=Haunted
TTITLE4=Daddy's Little Girl
TTITLE5=Golden
TTITLE6=Ways Of This World
TTITLE7=Slumber's Sympathy
TTITLE8=Plant White Roses
TTITLE9=Sleeper Awake
TTITLE10=The Green Willow Valley
TTITLE11=Whenever You're Out Of My Sight
TTITLE12=Pass On By
EXTD=
EXTT0=
EXTT1=
EXTT2=
EXTT3=
EXTT4=
EXTT5=
EXTT6=
EXTT7=
EXTT8=
EXTT9=
EXTT10=
EXTT11=
EXTT12=
PLAYORDER=
